<svg width="48" height="24" fill="none" xmlns="http://www.w3.org/2000/svg"><g clip-path="url(#clip0_13670_29316)"><path fill-rule="evenodd" clip-rule="evenodd" d="M36.002 0a.5.5 0 00-.5.5c0 2.415-.114 4.304-.424 5.784-.308 1.476-.805 2.508-1.545 3.249-.74.74-1.773 1.237-3.249 1.545-1.469.308-3.34.422-5.728.424H24.5a.5.5 0 000 1h.056c2.389.001 4.26.115 5.728.423 1.476.309 2.508.805 3.249 1.546.74.74 1.237 1.773 1.545 3.248.31 1.48.424 3.37.424 5.784a.5.5 0 101 0c0-2.415.113-4.303.423-5.784.309-1.475.806-2.508 1.546-3.248.74-.74 1.773-1.237 3.248-1.546 1.469-.308 3.34-.422 5.728-.423h.056a.5.5 0 00.5-.5.5.5 0 00-.5-.5h-.056c-2.388-.002-4.259-.116-5.728-.424-1.475-.308-2.508-.805-3.248-1.545-.74-.74-1.237-1.773-1.546-3.249-.31-1.48-.423-3.369-.423-5.784a.5.5 0 00-.5-.5zm0 17.261c.338-1.469.888-2.623 1.762-3.497.873-.874 2.028-1.424 3.497-1.762-1.469-.339-2.623-.888-3.497-1.762-.874-.874-1.424-2.029-1.762-3.498-.339 1.47-.888 2.624-1.762 3.498-.874.874-2.029 1.423-3.498 1.762 1.47.338 2.624.888 3.498 1.762.874.873 1.423 2.028 1.762 3.497z" fill="#D4D7D9"/></g><defs><clipPath id="clip0_13670_29316"><path fill="#fff" d="M0 0h48v24H0z"/></clipPath></defs></svg>