<svg width="48" height="24" version="1.1" xmlns="http://www.w3.org/2000/svg" xmlns:xlink="http://www.w3.org/1999/xlink"><symbol id="a"><path d="M10.819 16.905c-1.86-.194-3.538-.652-4.975-1.776-.178-.14-.362-.274-.524-.43-.63-.604-.692-1.296-.195-2.008.426-.61 1.14-.773 1.882-.423.144.068.281.153.412.244 2.677 1.839 6.354 1.89 9.041.082.266-.204.55-.37.88-.455.642-.165 1.24.07 1.584.632.393.64.388 1.266-.096 1.763-.744.763-1.637 1.315-2.63 1.7-.939.364-1.967.547-2.985.669.154.167.226.249.322.346 1.382 1.388 2.77 2.77 4.148 4.164.469.474.567 1.063.308 1.614-.282.604-.914 1-1.535.958-.392-.027-.699-.223-.971-.497-1.043-1.05-2.105-2.08-3.127-3.148-.298-.311-.44-.253-.703.017a208.926 208.926 0 01-3.188 3.201c-.482.475-1.055.56-1.613.29-.594-.288-.972-.894-.943-1.503.02-.412.223-.727.506-1.01 1.368-1.365 2.731-2.734 4.096-4.102.09-.091.174-.188.306-.328z" fill="#F38231"/><path d="M11.952 12.148c-3.32-.011-6.04-2.763-6.021-6.087C5.95 2.699 8.673-.01 12.025 0c3.359.01 6.054 2.757 6.038 6.153-.017 3.317-2.758 6.006-6.11 5.995zm3.017-6.08A2.958 2.958 0 0012 3.103a2.963 2.963 0 00-2.975 3.002 2.958 2.958 0 002.99 2.943A2.952 2.952 0 0014.97 6.07z" fill="#F38231"/></symbol><symbol id="b"><path d="M18.268 13.295c-.307-.607-1.157-1.111-2.287-.236C14.453 14.243 12 14.243 12 14.243s-2.453 0-3.98-1.184c-1.13-.875-1.98-.37-2.288.236-.535 1.057.07 1.569 1.434 2.43 1.166.736 2.767 1.01 3.801 1.114l-.863.849L6.9 20.839a1.212 1.212 0 000 1.734l.147.145a1.262 1.262 0 001.763 0l3.204-3.152 3.205 3.152a1.261 1.261 0 001.763 0l.147-.145a1.212 1.212 0 000-1.734l-3.205-3.151-.865-.852c1.035-.105 2.619-.381 3.775-1.111 1.364-.861 1.969-1.373 1.434-2.43M12 3.64c1.477 0 2.675 1.178 2.675 2.63 0 1.454-1.198 2.632-2.675 2.632-1.478 0-2.675-1.178-2.675-2.631 0-1.453 1.197-2.631 2.675-2.631" stroke="#d4d7d9" stroke-linecap="round" stroke-linejoin="round"/><path d="M12 11.619c3.003 0 5.438-2.395 5.438-5.348 0-2.954-2.435-5.348-5.438-5.348-3.003 0-5.438 2.394-5.438 5.348 0 2.953 2.435 5.348 5.438 5.348" stroke="#d4d7d9" stroke-linecap="round" stroke-linejoin="round"/></symbol><use xlink:href="#a" x="0"/><use xlink:href="#b" x="24" fill="none"/></svg>