<svg width="48" height="24" version="1.1" xmlns="http://www.w3.org/2000/svg" xmlns:xlink="http://www.w3.org/1999/xlink"><symbol id="a"><path d="M13.072 20C4.872 20 .195 13.994 0 4h4.107c.135 7.335 3.163 10.442 5.562 11.083V4h3.867v6.326c2.37-.272 4.857-3.155 5.697-6.326h3.868a12.647 12.647 0 01-1.853 4.574 11.767 11.767 0 01-3.41 3.402c1.5.796 2.825 1.923 3.887 3.306A12.983 12.983 0 0124 20h-4.257a7.995 7.995 0 00-2.296-3.86 7.188 7.188 0 00-3.91-1.858V20h-.465z" fill="#07F"/></symbol><symbol id="b"><path d="M1 4.5a.5.5 0 00-.5.51c.09 4.445 1.227 8.07 3.358 10.592 2.141 2.535 5.24 3.898 9.125 3.898h.425a.5.5 0 00.5-.5v-4.408a6.24 6.24 0 012.755 1.406 6.441 6.441 0 011.952 3.134.5.5 0 00.482.368H23a.5.5 0 00.483-.628 11.651 11.651 0 00-2.179-4.314 11.418 11.418 0 00-2.995-2.62 11.078 11.078 0 002.58-2.651 11.287 11.287 0 001.777-4.188.5.5 0 00-.49-.599H18.63a.5.5 0 00-.482.366 8.69 8.69 0 01-1.969 3.512c-.716.77-1.508 1.308-2.27 1.543V5a.5.5 0 00-.5-.5H9.863a.5.5 0 00-.5.5v8.992c-1.818-.823-3.99-3.377-4.098-9.002a.5.5 0 00-.5-.49H1z" stroke="#d4d7d9" stroke-linecap="round" stroke-linejoin="round"/></symbol><use xlink:href="#a" x="0"/><use xlink:href="#b" x="24" fill="none"/></svg>